<svg xmlns="http://www.w3.org/2000/svg" id="Layer_2" data-name="Layer 2" viewBox="0 0 51.68 59.85"><defs><style>      .cls-1 {        fill: #1b449c;      }    </style></defs><g id="Layer_1-2" data-name="Layer 1"><path class="cls-1" d="m51.68,29.92C51.68,13.42,40.09,0,25.84,0S0,13.42,0,29.92s11.59,29.92,25.84,29.92,25.84-13.42,25.84-29.92m-.49,0c0,16.23-11.37,29.44-25.35,29.44S.49,46.16.49,29.92,11.86.49,25.84.49s25.35,13.21,25.35,29.44m-1.54-1.36c-.02-.22-.05-.45-.06-.5-.01-.13-.01-.32-.03-.45,0-.05-.02-.07-.05-.07-.03,0-.03.02-.03.07v.06c.02.13-.04.18-.11.18-.05,0-.16,0-.27-.04l-.64-.18s-.04-.01-.04-.04l-.08-.95s0-.03.03-.05l.88-.42c.05-.03.09,0,.1.03,0,.04.02.06.04.06.03,0,.03-.05.02-.13-.02-.34-.05-.65-.06-.8-.01-.16-.03-.19-.06-.19-.03,0-.03.02-.03.06,0,.05,0,.11,0,.18-.01.09-.06.22-.44.41-.63.33-2.33,1.16-2.56,1.28-.1.05-.13.08-.13.12,0,.04.05.06.18.1l2.8.83c.22.07.38.13.42.33,0,.03.02.09.02.13,0,.03.01.05.04.05.04,0,.04-.03.04-.08m-1.44-1.03s-.01.02-.03.02l-1.09-.3s-.04,0-.04-.02c0-.01.02-.02.04-.02l1.03-.48s.03,0,.03.02l.07.78Zm-.25-7.89l-.76-.44.24-.83-.85.24-.41-.76-.43.77-.83-.24.23.85-.75.42.76.44-.24.83.85-.24.41.76.43-.77.83.24-.23-.85.75-.42Zm-1.05-.32l.55.32-.54.3.17.62-.6-.18-.32.56-.3-.55-.61.17.17-.6-.55-.32.54-.3-.17-.62.6.18.32-.56.3.55.61-.17-.17.6Zm-3.41-7.95s.01-.05-.03-.09c-.1-.13-.31-.37-.37-.45-.07-.09-.23-.31-.35-.47-.04-.05-.07-.07-.09-.05-.02.02-.02.04.01.08.03.04.06.09.08.12.06.13.03.2-.08.3-.1.09-.2.17-.71.58l-.6.47c-.31.25-.58.46-.73.56-.11.06-.2.11-.26.05-.03-.02-.07-.06-.11-.11-.03-.04-.05-.05-.07-.03-.02.02-.02.05.02.09.11.13.28.34.34.41.21.27.37.51.75.99.14.17.17.18.26.14.12-.05.39-.23.43-.26.04-.03.06-.05.04-.07-.02-.03-.05-.02-.08,0-.07.04-.2.08-.27.07-.16-.01-.26-.14-.4-.32-.21-.26-.25-.37-.25-.46,0-.12.24-.3.67-.65l.6-.47c.51-.41.61-.48.72-.56.12-.09.2-.11.29-.03.04.03.08.09.11.12.03.04.05.06.08.04m-2.56-3.07s0-.05-.04-.09c-.13-.11-.34-.27-.38-.3,0,0-.2-.18-.37-.32-.05-.04-.07-.05-.09-.03-.02.02,0,.05.03.08.04.03.09.08.11.11.09.11.07.19-.01.31-.08.11-.16.21-.57.71l-.34.42c-.28.34-.54.64-.87.67-.24.03-.46-.07-.6-.19-.11-.09-.25-.23-.3-.47-.05-.27.02-.55.42-1.03l.38-.47c.42-.51.49-.6.59-.7.1-.11.18-.15.28-.09.05.03.07.04.1.07.03.03.06.04.08.01.02-.02,0-.05-.05-.09-.12-.1-.34-.26-.41-.32-.1-.08-.3-.26-.47-.4-.05-.04-.08-.05-.1-.03-.02.02,0,.05.03.08.05.04.1.09.12.12.09.11.07.19-.01.31-.08.11-.16.21-.57.72l-.4.49c-.4.49-.47.84-.43,1.13.06.42.37.69.54.83.22.18.48.33.88.32.47-.01.83-.38,1.14-.75l.29-.36c.42-.51.49-.6.59-.7.1-.11.18-.15.28-.09.05.03.07.04.1.07.04.03.06.04.08.02m-5.06-3.68s-.02-.05-.07-.07c-.19-.08-.35-.14-.39-.15-.08-.04-.26-.13-.47-.22-.06-.03-.1-.04-.12,0-.01.02,0,.04.05.06.06.02.15.06.2.11.08.08.08.17-.02.41l-.73,1.8h-.02c-.04-.1-.32-.9-.47-1.28-.32-.82-.64-1.73-.66-1.8-.04-.1-.05-.17-.09-.19-.04-.02-.08.03-.11.11l-1.05,2.33c-.15.34-.22.45-.33.44-.06,0-.13-.03-.19-.06-.04-.02-.07-.02-.08,0-.02.04.02.05.07.08.2.09.39.16.43.17.07.03.23.11.48.22.05.02.09.03.11,0,0-.02,0-.04-.05-.06-.06-.03-.14-.06-.19-.12-.07-.06-.07-.19.05-.5l.68-1.69h.01c.04.11.26.79.5,1.41.23.58.51,1.32.65,1.66.02.06.05.13.1.14.04.02.07-.01.1-.1l1.12-2.49c.1-.22.17-.29.29-.27.05,0,.08.02.12.04.05.02.08.02.09,0m-5.97,1.02s-.01-.04-.05-.04c-.03,0-.07-.01-.12-.03-.06-.02-.23-.07-.44-.35-.22-.3-.47-.71-.79-1.24.47-.3.63-.58.67-.9.03-.29-.11-.53-.22-.62-.21-.19-.49-.24-.76-.28-.13-.02-.45-.04-.6-.06-.09-.01-.35-.05-.58-.08-.06,0-.09,0-.1.03,0,.03.02.04.07.05.06,0,.13.02.16.03.14.05.16.12.15.27,0,.14-.02.26-.1.91l-.09.76c-.05.4-.09.73-.13.91-.03.12-.06.21-.15.22-.04,0-.09,0-.15,0-.05,0-.07,0-.07.03,0,.03.03.05.08.05.17.02.44.04.52.05.06,0,.38.06.62.09.06,0,.09,0,.09-.03,0-.02-.01-.04-.05-.04-.05,0-.14-.03-.21-.04-.13-.03-.14-.13-.14-.26,0-.18.04-.52.09-.92v-.06s.02-.03.04-.03l.37.05s.05.01.07.04c.05.07.21.39.35.64.2.36.34.58.51.7.1.07.21.11.44.13l.4.05c.05,0,.08,0,.09-.03m-1.57-1.77c-.08.05-.14.06-.31.04-.11-.01-.23-.04-.32-.08-.03-.02-.04-.03-.03-.08l.15-1.3s.01-.05.05-.06c.04,0,.12,0,.23,0,.25.03.63.25.56.86-.04.35-.19.54-.33.61m-2.52,3.05c-4.87,0-9.5,2.28-13.04,6.42-3.75,4.39-5.82,10.28-5.82,16.59s2.07,12.2,5.82,16.59c3.54,4.14,8.17,6.42,13.04,6.42s9.5-2.28,13.04-6.42c3.75-4.39,5.82-10.28,5.82-16.59s-2.07-12.2-5.82-16.59c-3.54-4.14-8.17-6.42-13.04-6.42m12.68,6.72c3.68,4.31,5.71,10.09,5.71,16.29s-2.03,11.99-5.71,16.29c-3.45,4.03-7.95,6.26-12.68,6.26s-9.24-2.22-12.68-6.26c-3.68-4.31-5.71-10.09-5.71-16.29s2.03-11.99,5.71-16.29c3.45-4.03,7.95-6.25,12.68-6.25s9.24,2.22,12.68,6.25m.06,18.23l-.07.14c0-4.12,0,2.17,0-7.81v-3.67c-.03-2.13-.85-4.01-2.91-4.93-.86.52-1.83,1.2-2.59,1.85l-.22.19c.14.32.35,1.22.2,1.87-.02.09-.03.11-.06.2-1.12.12-2.09.9-3.14,1.31-.29.11-.55.2-.83.26-.43-.46-.58-1.11-.67-1.62-.11-.59-.08-1.23-.11-1.93.16-.73.28-1.35.15-1.85.08.01.18.08.32.2-.06-.39-.19-.62-.39-.94.14,0,.26.03.44.09-.1-.44-.18-.52-.46-.79.21-.09.36-.22.43-.38-.66.02-1.09-.27-1.65-.7-.36-.28-.97-.5-1.42-.54-.63-.07-1.86-.04-1.7.87-.28-.1-.68-.19-.89-.13-.14.04-.28.11-.35.17v-.67h.42c.18,0,.35.06.5.19.09-.12.14-.3.14-.47,0-.18-.04-.35-.14-.47-.15.13-.32.18-.5.19h-.42v-.42c0-.18.06-.35.19-.5-.12-.09-.29-.14-.47-.14-.18,0-.35.04-.47.14.13.15.18.32.19.5v.42h-.42c-.18,0-.35-.06-.5-.19-.09.12-.14.3-.14.47,0,.18.04.35.14.47.15-.13.32-.18.5-.19h.42v.19s0,0,0,0c0,.79,0,1.48,0,2.29,0,.11-.11.23-.19.3.17.12.37.37.47.6.11-.24.31-.47.47-.6-.07-.07-.18-.19-.19-.3,0-.19,0-.49,0-.68.43.23,1.41.86,1.54,1.27.12.45-.02,1.06-.03,1.72-.02.83-.58,2.69-1.53,3.46-1.34-.23-2.5-1.42-3.88-1.56l-.03-.11c-.19-.64.02-1.6.17-1.96l-.22-.19c-.75-.66-1.73-1.33-2.59-1.85-2.06.92-2.88,2.8-2.91,4.93v9.4c-.06-.01-.13,0-.18.03-.06.03-.1.07-.13.12l-.37-.02c.41-.5.57-1.05.12-2.06-.19.2-.34.41-.45.67-.3-.59-1-.92-1.07-.94-.03.07-.11.85.1,1.39-.26-.05-.51-.03-.79,0,.53.93.92,1.12,1.72,1.14l-.21.3c-.06,0-.12,0-.17.03-.14.07-.2.24-.13.39.07.14.24.2.38.13.14-.07.2-.24.13-.39,0-.02-.02-.03-.03-.05l.13-.19.57,1.15c-.4-.34-.82-.42-1.25-.35.13.24.26.44.4.61-.22-.01-.44.02-.66.09.59.93,1.24,1.32,1.88,1.35v.58c-.03.07-.03.15,0,.22v.51c-.12.01-.25.03-.37.06.12.21.24.4.37.55v.16c-.1.02-.21.05-.31.08.1.16.21.29.31.41v6.29c0,.33,0,1.08-.15,1.42.94-.49,1.92-1.36,2.29-2.36v.34c.33-.19.86-1.1,1.17-1.53.13,0,.16-.02.3-.05l-.12.18c-.06,0-.12,0-.17.03-.14.07-.2.24-.13.39.07.14.24.2.38.13.14-.07.2-.24.13-.39,0-.02-.02-.03-.03-.05l.13-.19.24.48-.21.17c-.22.16-.3.33-.27.5-.22.23,0,.71.21.89,0-.05.01-.12.03-.14-.05.11.15.4.25.39-.05.21.28.51.4.45-.02.13.24.4.41.28h0s.29-.25.29-.25c.06.24.09.53.01.95.33.05.69.24.91.41,0-.27.09-.75.23-.99-.31-.12-.55-.33-.76-.6l-.04-.08h.01c.28-.19.34-.32.4-.59.09-.31.2-.38.33-.58.58-.76,1.21-1.48,1.83-2.2l.08.24c.31-.58.91-1.14,1.41-1.55.18.07.36.14.54.22.21.09.43.18.63.28-.39,2.66-2.35,4.75-3.95,6.75.79.27,1.53.6,2.21.95.77-.88,1.49-2.01,2.04-3.05-.38,1.16-.92,2.5-1.4,3.41,1.25.75,2.39,1.77,3,2.68.61-.91,1.75-1.93,3-2.68-.48-.91-1.02-2.26-1.4-3.41.55,1.04,1.27,2.17,2.04,3.05.67-.36,1.41-.68,2.21-.95-1.57-1.97-3.57-4.13-3.95-6.77.19-.09.38-.17.58-.25.21-.08.42-.17.63-.25.5.41,1.1.97,1.41,1.55l.08-.24c.62.73,1.25,1.44,1.83,2.2.13.2.24.27.33.58.06.26.11.39.38.57-.12.02-.22.09-.28.21-.05.1-.06.21-.02.31-.19.03-.26.21-.22.38.08.32.1.54.04.8.17-.2.36-.3.68-.41.17-.06.27-.22.19-.4.1-.03.19-.09.25-.2.02-.04.04-.09.04-.13h.02c.17.14.44-.13.42-.26.12.06.45-.24.4-.45.1.01.31-.28.25-.39.02.03.03.1.03.14.21-.19.43-.67.21-.9.03-.17-.05-.35-.27-.5.15,0,.3-.08.38-.23.07-.13.06-.26,0-.39.05,0,.09,0,.13-.01.31.43.85,1.29,1.15,1.47v-.34c.37,1,1.39,1.89,2.3,2.36-.11-.32-.15-1.09-.15-1.42v-8.62l.71-1.35c.06-.12.13-.21.26-.25.05-.09.09-.18.07-.28.09.02.18.02.26.02.08-.37.6-1.55,1.28-1.29.03-.38-.02-.68-.33-1.05.23-.09.29-.34.17-.55.07-.02.13-.05.19-.1-.13-.24-.17-.43-.11-.69-.19.2-.36.27-.63.3,0,.07,0,.14.03.21-.24.02-.41.21-.35.45-.48-.05-.75.07-1.05.31.59.42-.08,1.52-.34,1.79.05.07.1.15.17.21-.1.04-.15.13-.2.21.04.14,0,.24-.06.36m-26.59-.91c-.08.04-.18,0-.22-.07-.04-.08,0-.18.07-.22.08-.04.18,0,.21.07.04.08,0,.18-.07.22m.07-.92c-.45.06-.94-.12-1.31-.76.46-.05.95.12,1.31.76m.16-.15c-.24-.29-.47-.55-.8-.72-.14-.31-.2-.64-.14-1.13.42.25.69.5.85.81-.05.34.02.74.1,1.03m27.89-.64c-.17.05-.36.12-.45.25.18.37-.11.93-.54,1.69-.07,0-.12-.03-.16-.08.44-.64.68-1.52.34-1.73.21-.2.52-.19.8-.14,0,0,0,.01.01.02m.6-.63c-.07-.04-.12-.09-.13-.15.15-.04.25-.12.32-.2-.03.11-.04.23,0,.38-.05.02-.12,0-.19-.03m-.27.51c-.13-.07-.19-.21-.14-.31.05-.1.2-.12.33-.05.13.07.19.21.14.31-.05.1-.2.12-.33.05m-.95,2.26c.38-.79.67-1.34,1.08-1.4.06-.15.01-.35-.05-.52,0,0,.02,0,.02,0,.19.21.38.46.33.75-.36-.16-.95.52-1.23,1.26-.07,0-.12-.03-.16-.08m-.09-.05s-.08-.02-.11-.03c-.03-.01-.05-.04-.09-.07.31-.48.75-1.33.62-1.66.11-.2.36-.21.49-.21.07.11.2.33.1.53-.34.07-.79.92-1.01,1.44m-2.84,8.92v-3.05l.63-1.19c.14,0,.26-.07.33-.2.05-.09.05-.19.03-.28.12-.03.22-.1.28-.21.07-.13.06-.26,0-.39.08-.03.15-.08.19-.15v7.46c-.91-.66-1.46-1.32-1.46-1.99m.44-5.37c.06-.12.25-.14.43-.04.17.09.26.26.2.38-.06.12-.25.14-.43.04-.17-.09-.26-.26-.2-.38m.14.5c.15.08.24.23.19.32-.05.1-.22.11-.37.02-.15-.08-.24-.23-.19-.32.05-.1.22-.11.37-.02m.21-.98c.04-.08.19-.09.32-.02.13.07.21.2.16.28-.04.08-.19.09-.32.02-.13-.07-.21-.2-.16-.28m-1.67,5.33c.13-.26.16-.62.19-.92.02-.16.04-.37.12-.52l.18-.35v2.38c-.13-.08-.37-.37-.49-.6m-.88.09c-.25-.14-.34-.45-.21-.71,0,0,.01-.02.02-.03.16-.3.77-.6.98-1l1.22-2.32c.06.05.12.09.2.11l-1.22,2.32c-.21.4-.11,1.1-.28,1.39,0,0,0,.01,0,.02-.14.26-.45.36-.7.22m2.36-19.14v2.26l-.6-.52v-.88l.6-.86Zm-.59,0v-1.91c.3.42.45.75.57,1.17l-.57.73Zm0,15.04v-.1s.02.03.03.05l-.03.05Zm-1.2-14.98v2.2l-.53-.46v-1.16l.53-.58Zm-.6.03v-1.62c.16.24.39.57.6.79l-.6.83Zm.73,3.11c.22-.19.44-.61.66-.8v1.15h0v12.26s-.78,1.49-.78,1.49c-.08.15-.23.28-.36.38-.06.05-.12.1-.18.15v-14.33h0v-1.11s.66.8.66.8Zm.13-.95v-2.12l.53.73v.93l-.53.46Zm-.04-3.05c.25-.35.43-.93.52-1.25l.12,2.13-.63-.88Zm-1.13,20.56c-.17-.09-.25-.26-.19-.38.06-.12.25-.14.41-.05.16.09.25.26.19.38s-.25.14-.41.05m-1.13-6.41v-10.99l.5.65.6-.78v1.32h0v13.83c-1.18-.76-1.21-2.22-1.2-3.32.07-.22.1-.46.1-.69m-1.34,4.42c-.27-.5-.58-1-.65-1.58l-.02-.11c.54-.32,1.06-.7,1.43-1.15.05,1.22.61,2.65,1.67,3.31-.03.06-.06.12-.08.18-.07.15-.09.3-.03.47.02.06.04.12.07.18-.13.02-.24.1-.3.22-.04.08-.05.16-.05.24,0,0,0,0-.01,0-.29-.14-.75-.05-.98-.19-.05-.03-.11-.1-.15-.15-.08-.1-.15-.19-.24-.28-.28-.35-.63-.82-.9-1.17l.25.05Zm1.98-15.63v-2.01l.46.52v1.08l-.46.41Zm-.26-3.15c.31-.26.53-.58.72-.88v1.93c-.31-.37-.51-.79-.72-1.05m.98,21.74c.06,0,.1-.03.14-.07.03,0,.05.02.06.09.04.17,0,.37-.1.48.02-.16-.04-.36-.1-.49m-.41.75l-.6-.54c-.14-.12,0-.32.17-.2.21.16.45.29.65.46.06.05.07.14.03.18l-.07.09s-.12.06-.18.01m-.07-.73s.04-.07.07-.12c.17.16.25.29.28.45-.11-.11-.25-.23-.35-.34m-.12-.04c-.06-.05-.12-.08-.2-.11l.11-.22c.07.03.14.06.2.11l-.11.22Zm-.65.68c-.14-.13.03-.34.18-.22l.61.46c.06.05.07.14.03.19l-.07.09s-.13.06-.19,0l-.56-.52Zm.05-.58c-.12-.04-.16-.17-.18-.23.11-.02.23,0,.29.05-.05.03-.11.11-.11.19m-.33,1.01c-.12-.12.02-.32.17-.21l.49.37c.06.04.07.12.04.17l-.07.09s-.12.06-.18,0l-.45-.43Zm.08-.57c-.11-.08-.14-.22-.16-.28.1,0,.24.03.29.08-.05.02-.12.12-.13.2m-.32,1.43c.07.04.31.16.17.25-.15.09-.28.11-.46.3.03-.2,0-.37-.01-.55,0-.17.23-.04.3,0m.3-.56c.14.08.21.22.16.33-.06.1-.21.13-.36.05-.14-.08-.21-.22-.16-.33.05-.1.21-.13.36-.05m-.43-.72c.16-.02.25.05.31.09-.05.03-.09.1-.1.18-.12-.04-.19-.2-.21-.26m-2.32-3.2l.04-.32.53.22.08-.57.27.11c.37.46.71.93,1.07,1.39.27.27.35.57.72.54.07,0,.64.06.76.12.22.1.39.38.55.45.1.02.29.16.31.26.02.1-.05.19-.19.21-.18-.2-.41-.29-.56-.32-.44-.09-.66-.12-.95-.22.24.16.43.23.59.44-.15-.02-.39-.05-.55-.02.04.15.11.3.23.44-.08-.04-.25-.05-.41-.04.01.12.05.28.12.48-.15-.07-.22-.12-.35-.08-.07-.37-.18-.57-.3-.71-.62-.81-1.3-1.58-1.96-2.36m-1.25-1.11c.12-.05.25-.1.37-.15.45-.2.97-.42,1.48-.7.07.36.2.81.38,1.14l-.57-.23-.07.57-.53-.22-.06.49-1.01-.89Zm-4.96.76c.68.41,1.16.94,1.57,1.61.41-.67.89-1.2,1.57-1.61.37,2.37,2.24,4.83,3.63,6.45-.29.1-.94.32-1.45.55-1.4-1.53-2.6-3.93-3.09-5.03.1,1.52,1.12,4.58,1.56,5.72-.73.42-1.37.97-2.22,1.67-.85-.7-1.49-1.25-2.22-1.67.45-1.14,1.46-4.19,1.56-5.72-.49,1.11-1.69,3.5-3.09,5.03-.52-.24-1.16-.45-1.45-.55,1.39-1.61,3.26-4.08,3.63-6.45m-3.42-.14l-.07-.57-.57.23c.18-.33.32-.78.38-1.14.51.28,1.03.51,1.48.7.12.05.25.1.37.15l-1.01.89-.07-.49-.53.22Zm-3.61-17.66v-1.93c.19.3.42.62.72.88-.21.25-.41.68-.72,1.05m.46.1v2.01l-.46-.41v-1.08l.46-.52Zm.63,2.23v10.98c0,.26.04.49.11.72.01.74.01,1.55-.39,2.57-.02-.08-.04-.15-.07-.23-.14.09-.26.2-.38.31-.03-.25-.1-.52-.23-.82-.04.04-.08.07-.13.11v-13.77l.6.78.49-.64Zm-.48,14.42c.24.85-.06,1.55-.67,2.01-.16-.83.22-1.56.67-2.01m1.07-1.86c.38.46.89.84,1.44,1.16l-.02.11c-.08.58-.38,1.08-.65,1.58l.25-.05c-.27.35-.63.83-.9,1.17-.09.09-.16.19-.24.28-.04.05-.09.12-.15.15-.23.14-.69.05-.98.19-.03.01-.05.03-.07.04l-.05.04s0-.02-.01-.03l-.18-.37h.23s.01.05.02.06c.07.14.24.2.38.13.14-.07.2-.24.13-.39-.07-.14-.24-.2-.38-.13-.06.03-.1.07-.13.12h-.21c.48-.44.78-1,.76-1.71.49-.73.74-1.51.77-2.37m-1.17,4.07c.08-.04.18,0,.22.07.04.08,0,.18-.07.22-.08.04-.18,0-.22-.07-.04-.08,0-.18.07-.22m.92,2.66c0-.08-.05-.15-.1-.18.06-.04.15-.11.31-.09-.02.06-.09.22-.21.26m-.21.42l.11-.11.05.11c.18.28.4.46.67.56-.11.19-.15.37-.15.64-.21-.15-.38-.21-.6-.26.06-.34.03-.62-.05-.87l-.03-.06Zm-.02-.83c-.01-.08-.08-.18-.13-.2.06-.05.2-.08.29-.08-.01.06-.05.2-.16.28m-.58.74l.49-.38c.15-.11.29.09.17.21l-.45.43c-.06.05-.14.04-.18,0l-.07-.08s-.02-.12.04-.17m-.4-.36l.61-.46c.16-.12.33.09.18.22l-.56.52c-.06.05-.15.04-.19,0l-.07-.09s-.03-.14.03-.19m.74-.81c0-.08-.06-.16-.11-.19.06-.04.18-.06.29-.05-.02.06-.06.19-.18.23m-1.01.39c.2-.18.44-.31.65-.46.16-.12.3.08.17.2l-.6.54c-.06.05-.14.03-.18-.01l-.07-.09s-.03-.13.03-.18m.53-.63l-.08-.16.14-.04.06.12-.12.08Zm-.6.51c.04-.22.24-.44.41-.6.03.05.05.09.07.13-.11.11-.37.36-.48.47m-.13-.36c-.06.13-.12.33-.1.49-.09-.11-.14-.32-.1-.48.01-.06.03-.09.06-.09.04.04.08.07.14.07m.75-1.05c.12-.06.7-.13.76-.12.37.04.44-.27.72-.54.37-.46.71-.93,1.07-1.39l.27-.11.07.57.53-.22.04.32c-.67.79-1.34,1.55-1.96,2.36-.12.14-.23.35-.3.71-.13-.04-.2,0-.35.08.07-.2.11-.36.12-.48-.15,0-.32,0-.4.04.12-.13.19-.28.23-.44-.16-.03-.4,0-.55.02.15-.21.35-.28.59-.44-.29.1-.51.13-.95.22-.15.03-.38.13-.56.32-.13-.01-.2-.1-.19-.21.02-.1.21-.24.31-.26.16-.07.33-.34.55-.45m-.69-.47c.05-.02.09-.03.13-.06l.26.52-.11.1-.28-.56Zm-.26-1.2c-.14-.39-.02-1.29.48-1.68.23.63-.09,1.37-.48,1.68m-1.68-17.16v.88s-.6.52-.6.52v-2.26l.6.86Zm-.58-1.59c.1-.29.24-.71.57-1.17v1.91l-.57-.73Zm-.85,13.91s-.02-.03-.03-.05l.13-.19.68,1.38c-.25-.21-.53-.33-.81-.38v-.45c.07-.09.09-.21.03-.31m.74.72l-.4-.81c-.1-.2-.2-.33-.19-.55.17.14.22.3.32.49l.4.82c.16.32.27.54.36.88-.21-.26-.34-.52-.49-.82m-.16-3.7c.3.85.1,1.52-.4,1.88-.25-.83-.04-1.5.4-1.88m-.37,0c-.05-.21-.13-.43-.24-.68v-7.19l.73.86.72-.86v10.79c-.18.29-.27.62-.26,1l-.68-1.38h.23s.01.05.02.06c.07.14.24.2.38.13.14-.07.2-.24.13-.39-.07-.14-.24-.2-.38-.13-.06.03-.1.07-.12.12l-.36-.02-.06-.13c.6-.54.83-1.4.36-2.67-.18.14-.34.3-.46.48m.67,2.33c.08-.04.18,0,.22.07.04.08,0,.18-.07.22-.08.04-.18,0-.22-.07-.04-.08,0-.18.07-.22m.95.52c.22.63-.04,1.33-.38,1.6-.14-.39-.06-1.26.38-1.6m.54.45c.25.84.01,1.51-.53,1.94-.19-.82.14-1.52.53-1.94m.09,4.21c-.2-.16-.41-.27-.63-.33v-.96l.63,1.29Zm-.61-1.75c.18.19.28.41.39.64l.26.52c.16.33.31.6.4.96-.22-.28-.36-.56-.52-.88l-.27-.54c-.11-.23-.22-.44-.26-.7m.88,2.24c-.48.13-1.25-.06-1.61-.62.61-.17,1.39.28,1.61.62m-1.29-1.59c-.08.04-.18,0-.22-.07-.04-.08,0-.18.07-.22.08-.04.18,0,.22.07.04.08,0,.18-.07.22m.39-15.76l.53-.73v2.12l-.53-.46v-.93Zm-.07-.77l.12-2.13c.08.31.27.89.52,1.25l-.63.88Zm.73,3.11l.66-.8v.34s0,13.73,0,13.73c-.21.31-.32.66-.31,1.07l-.78-1.59h.23s.01.05.02.06c.07.14.24.2.38.13.14-.07.2-.24.13-.39-.07-.14-.24-.2-.38-.13-.06.03-.1.07-.13.12l-.36-.02h0c.67-.57.97-1.41.55-2.62-.13.09-.24.19-.35.29-.03-.25-.11-.52-.24-.81-.03.02-.06.05-.08.08v-10.26c.22.19.44.61.66.8m-.03,12.54c.08-.04.18,0,.22.07.04.08,0,.18-.07.22-.08.04-.18,0-.22-.07-.04-.08,0-.18.07-.22m.16-13.48v-2.2l.53.58v1.16l-.53.46Zm0-3c.21-.22.43-.54.6-.79v1.62s-.6-.83-.6-.83Zm.49,20.4c.04.08,0,.18-.07.22-.08.04-.18,0-.22-.07-.04-.08,0-.18.07-.22.08-.04.18,0,.22.07m-1.28-.45c.06.03.27.07.33.09-.1.13-.17.23-.33.35v-.44Zm-.71-.89c.63-.09,1.44.04,2,.67-.73.21-1.47.03-2-.67m-1.14-2.69c.46.31.96.39,1.46.31v.2l-.06.09c-.06,0-.12,0-.17.03-.14.07-.2.24-.13.39.07.13.22.19.36.14v.56c-.25-.01-.5.02-.77.09.16.28.33.51.51.68-.16.02-.31.06-.47.12.23.34.47.59.73.77v.57c0,.67-.54,1.32-1.46,1.99v-5.92Zm-.36-.73c.57-.06,1.32.1,1.85.74-.66.18-1.34-.03-1.85-.74m-.03-.7c.53-.15,1.27.31,1.49.66-.42.11-1.13-.1-1.49-.66m.26-.78c-.08.04-.18,0-.22-.07-.04-.08,0-.18.07-.22.08-.04.18,0,.21.07.04.08,0,.18-.07.22m-.04-1.15c-.58.19-1.24-.05-1.73-.81.56-.13,1.22.11,1.73.81m-.41-.83c-.43.09-.86-.12-1.16-.67.43-.09.94.32,1.16.67m-.69-2.29c-.27-.71-.12-1.19.19-1.51.28.71.12,1.19-.19,1.51m.79.64v.92l-.56-1.14h.23s.01.05.02.06c.06.12.19.18.31.15m-.01-.13c-.08.04-.18,0-.22-.07-.04-.08,0-.18.07-.22.08-.04.18,0,.22.07.04.08,0,.18-.07.22m.14,1.76c-.2-.24-.31-.48-.45-.76l-.28-.57c-.11-.22-.2-.36-.22-.6.17.17.24.34.35.55l.28.57c.15.3.24.49.32.81m.33-1.52c.26.57.16,1.05-.17,1.34-.14-.39-.16-1.05.17-1.34m.03-9.21l.6-.82v2.37l-.6-.52v-1.03Zm.24-2.65c.03.29.16.68.36,1.26l-.59.52c0-.78.04-1.41.24-1.78m4.44-.96c-.14.5-.18,1.28-.11,1.74-.72-.58-.81-.95-.84-1.5,0-.04.03-.2-.04-.22-.07-.01-.14.17-.2.35-.18.57-.55,1.03-.84,1.27-.44-.83-.55-1.45-.39-2.04,0-.02.02-.09.02-.11,0-.03-.03-.12-.09-.12-.06-.01-.19.21-.21.24-.4.63-.98,1.38-1.27,2.04-.18-.45-.25-1.02-.26-1.19.45-.8,1.02-1.68,1.93-2.06.98.59,1.82,1.17,2.3,1.6m.93,3.92h-1.22l.09.15c.12.21.17.37.18.58l-.34.31v-2.22l.26-.57c.25.65.63,1.34,1.02,1.75m.9-1.06c-.41.13-.7.41-.85.66-.25-.39-.42-.8-.47-1.08.49.06,1.03.24,1.32.42m.09.3c.04.18.2.45.45.75h-1.2c.2-.33.5-.6.75-.75m1,.18c-.16.06-.3.15-.4.29-.14-.17-.27-.41-.28-.62l.68.33Zm1.07.43c-.08.05-.16.1-.23.14h-1.12c.12-.18.3-.34.51-.43.22.09.39.16.83.28m.55-6.82c.34.02.93.17,1.27.36-.13.04-.24.13-.3.27-.3-.27-.77-.56-.97-.63m-.24-.42c.42-.14.94.28,1.18.48-.36-.1-.91-.25-1.18-.13,0-.14,0-.22,0-.35m-.56,1.48c.06-.06.13-.22.13-.3,0-.37,0-.63,0-1,.07-.06.19-.12.29-.15,0,.38,0,.77,0,1.15,0,.08.07.24.13.3-.1.08-.2.16-.28.31-.06-.1-.15-.22-.28-.31m.42-2.91v.9c-.1.08-.23.23-.29.37v-.94h0v-.31s0-.02,0-.02h-.52c-.11,0-.38.02-.49.13-.03-.08-.05-.18-.05-.28,0-.1.01-.2.05-.28.11.11.38.14.49.13h.09s.43,0,.43,0v-.53c0-.12-.02-.39-.13-.5.08-.03.18-.05.28-.05.1,0,.2.01.28.05-.11.11-.14.39-.13.5v.09h0v.44h.43s0,0,0,0h.09c.11,0,.38-.02.5-.13.03.08.05.18.05.28,0,.1-.01.2-.05.28-.11-.11-.38-.14-.5-.13h-.52Zm1.98,2.01c-.38-.26-1.03-.77-1.66-.81-.08,0-.29.05-.41.11.08-.1.17-.25.32-.35.18-.13.33-.16.59-.1.23.06.45.1.62.21.06.33.39.6.55.95m4.24,6.57c-.47-.14-1.14-.63-1.26-1.25-.01-.31-.06-1.34-.07-1.64-.01-.3-.02-.56-.02-.88-.07-.15-.12-.23-.14-.26-.06.08-.11.18-.13.26,0,.41.1,1.69.1,2.47,0,.66.19.89.34,1.18-.44-.26-.92-.56-.91-1.21,0-.33,0-1.17-.01-1.5,0-.32,0-.59,0-.93-.04-.11-.09-.19-.15-.26-.08.08-.11.16-.14.25v2.73c.01.32-.11.68-.34.87-.18-.17-.29-.47-.31-.87-.04-.91.03-1.81.03-2.73-.02-.07-.1-.2-.14-.26-.05.06-.11.17-.14.26-.01.28,0,.44-.01.71s-.02,1.48-.02,1.74c.01.42-.33.8-.83,1.13.18-.36.26-.64.33-1.06.12-.71.09-1.76.14-2.53-.02-.08-.07-.18-.12-.26-.06.09-.1.17-.13.26-.03.44-.02.97-.06,1.7-.11,1.21-.91,1.8-1.8,2.1.42-.36.74-1,1.04-1.57.27-.52.44-1.24.51-2.17,0-.1.01-.2.02-.3.07-.68.09-1.56-.42-1.88.09-.33.36-.42.61-.3.12.06.33.12.52.08-.48-.53-.74-.89-.96-1.4.04-.07.29-.04.51.04.11.04.21.13.35.15-.12.08-.24.13-.39.32.18.07.33.29.6.32.28.03.4-.21.64-.34-.08-.1-.27-.23-.47-.3.22-.07.59-.24.93-.17.24.07.38.22.59.34.02,0,.03,0,.05,0,.01-.01.01-.03,0-.05-.21-.23-.3-.33-.55-.46-.17-.08-.5-.08-.69-.05-.19.03-.42.08-.65.08-.4,0-.63-.22-.99-.15-.23-.71.84-.74,1.56-.59.49.1.88.31,1.04.44.35.26.9.57,1.33.71-.09.05-.21.1-.35.1.3.19.49.46.59.59-.09-.03-.23-.04-.47-.04.21.28.39.61.45.74-.08-.03-.22-.06-.3-.08.16.45.08,1.37-.11,1.83-.08.19-.07.39-.06.59.05,1.31-.07,2.52.89,3.52m-3.54-7.01c0,.11.06.21.13.22-.13-.01-.23-.1-.23-.22s.1-.21.23-.22c-.07.01-.13.1-.13.22m.29,0c0-.12-.06-.21-.14-.22h0c.14,0,.26.1.26.22s-.12.22-.26.22h0c.08,0,.14-.1.14-.22m-1.08,6.52c-.07.32-.21.55-.33.73h-.85c.5-.16.76-.32,1.18-.73m1.05-.13c.08.21.29.61.53.86h-1.45c.51-.28.77-.66.92-.86m1.05,0c.33.39.7.68,1.09.87h-1.61c.25-.25.48-.49.52-.87m2.12.87h-.61c-.12-.17-.15-.33-.24-.54.15.16.45.37.84.54m1.56-.43c.19.1.38.25.5.43h-1.11c-.07-.04-.15-.09-.22-.14.44-.11.62-.19.83-.28m.91-.48c-.01.21-.14.45-.28.62-.11-.14-.25-.22-.4-.29l.68-.33Zm.32.15c.25.15.55.42.75.75h-1.2c.25-.3.42-.57.45-.75m1.4-.72c-.04.28-.22.7-.47,1.08-.16-.26-.45-.53-.85-.66.28-.18.82-.37,1.32-.42m.6-.28l.26.57v2.22l-.34-.32c.02-.21.06-.36.18-.57l.09-.15h-1.21c.39-.41.77-1.11,1.02-1.75m4.15-1.7c0,.17-.07.74-.26,1.19-.29-.66-.87-1.41-1.27-2.04-.02-.03-.14-.26-.21-.24-.06,0-.09.09-.09.12,0,.02.01.08.02.11.16.59.05,1.21-.39,2.04-.29-.24-.66-.69-.84-1.27-.06-.18-.13-.36-.2-.35-.07.01-.04.18-.04.22-.04.54-.12.92-.84,1.5.06-.46.02-1.24-.12-1.74.48-.42,1.33-1,2.3-1.6.91.38,1.49,1.27,1.93,2.06m.45,2.27l-.59-.52c.2-.58.33-.97.36-1.26.2.37.24,1,.24,1.78m0,1.9l-.6.52v-2.37l.6.82v1.03Zm0,1.77h0v8.74l-.55,1.05c-.08.14-.25.18-.33.31-.04.08-.05.18-.03.26-.13.02-.25.09-.32.22-.06.11-.06.24-.02.35-.09.03-.17.09-.21.18h0s0-11.06,0-11.06v-1.2s.73.86.73.86l.73-.86v1.17Zm.77,7.78c.09-.17.13-.35.1-.44.03-.05.14-.04.26.03s.19.16.17.21c-.09.03-.22.16-.31.33l-1.12,2.12s-.03.1-.03.16c-.08-.08-.18-.14-.31-.17.04-.03.08-.06.11-.11l1.12-2.12Zm-6.07-9.65c0,2.5,0,4.99,0,7.49,0,1.41,0,2.82,0,4.22,0,.18-.03.36-.08.53-.39,1.21-2.2,1.99-3.27,2.45-.72.31-1.45.59-2.14.95-.53.27-1.07.58-1.37,1.13-.3-.55-.83-.85-1.37-1.13-.7-.36-1.43-.64-2.14-.95-1.08-.47-2.88-1.24-3.27-2.45-.06-.17-.08-.35-.08-.53v-11.71h13.75Zm-5.18,2.61l-.73-.42.23-.8-.81.22-.39-.73-.41.74-.79-.23.22.82-.72.4.73.42-.23.8.81-.22.39.73.41-.74.79.23-.22-.82.72-.4Zm-1-.31l.53.3-.52.29.16.59-.57-.17-.3.53-.28-.52-.59.16.17-.57-.53-.3.52-.29-.16-.59.57.17.3-.53.28.52.59-.16-.17.57Zm-5.5,3.79c-.56.59-1.33,1.06-2.07,1.39.73.33,1.5.79,2.07,1.39.57-.6,1.29-1.06,2.02-1.39h0c-.74-.33-1.45-.8-2.02-1.39m-.02.52h.02s.02,0,.02,0c.39.37.82.59,1.29.85l.04.02-.04.02c-.47.27-.9.48-1.29.85l-.02.02-.02-.02c-.39-.37-.82-.59-1.29-.85l-.04-.02.04-.02c.47-.27.9-.48,1.29-.85m.39,3.47c-.5,0-.82.43-.68.84-.35-.27-.85-.09-1.01.39-.15.48.15.92.59.91-.36.26-.34.79.06,1.09.4.29.91.14,1.04-.28.13.42.64.58,1.04.28.4-.29.42-.83.06-1.09.44,0,.74-.44.59-.91-.15-.48-.65-.66-1.01-.39.14-.42-.18-.85-.68-.85m.7,1.95c.03-.12.02-.25-.02-.38-.04-.13-.11-.24-.21-.32.28-.43.75-.47.93.08.18.55-.22.79-.7.62m-.63.56c.12-.01.25-.06.35-.13s.19-.18.24-.3c.49.14.67.57.21.92-.47.34-.82.03-.8-.48m-.59-.54c-.1-.29.06-.61.35-.71.27-.09.55.04.67.28.01.02.02.05.03.07.1.29-.06.61-.35.71-.29.1-.6-.06-.7-.35m-.13.11c.05.12.13.22.24.3.11.08.23.12.35.13.02.51-.33.82-.8.48-.47-.34-.28-.78.21-.92m.19-.83c-.09.08-.17.19-.21.32-.04.13-.05.26-.02.38-.48.18-.88-.06-.7-.62.18-.55.64-.51.93-.08m.47-.94c.58,0,.68.46.37.86-.11-.06-.23-.1-.37-.1s-.26.04-.37.1c-.31-.4-.21-.86.37-.86m2.45-1.3l-.62.63.62.63.62-.63-.62-.63Zm-.3.63l.3-.3.3.3-.3.3-.3-.3Zm.79.76c-.38-.01-.73-.03-1.11-.05.18.77.36,1.54.54,2.31.04.17.09.34.06.55.35-.16.67-.62.63-1.18l-.12-1.63Zm-.1,1.64c.02.21-.03.5-.17.71-.01.02-.03.02-.05.02-.02,0-.03-.02-.03-.04,0-.1-.02-.21-.05-.31-.13-.6-.28-1.23-.41-1.81.2,0,.4.02.6.03l.11,1.42Zm3.63.62c.18-.77.36-1.54.54-2.31-.38.01-.73.03-1.11.05l-.12,1.63c-.04.56.28,1.03.63,1.18-.02-.2.02-.38.06-.55m.25-2.06c-.14.58-.29,1.21-.41,1.81-.02.1-.04.21-.05.31,0,.02-.01.04-.03.04-.02,0-.04,0-.05-.02-.14-.2-.18-.49-.17-.71l.11-1.42c.2,0,.4-.02.6-.03m-.32-.33l.62-.63-.62-.63-.62.63.62.63Zm.3-.63l-.3.3-.3-.3.3-.3.3.3Zm.72,1.4c-.51,1.01,0,2.16,1.47,2.67-.76-1.56,0-2.87,1.48-2.82-.74-.7-2.36-1.02-2.95.16m.28.24c.31-.59.99-.96,1.96-.58-.54.18-.95.51-1.16.96-.21.45-.22,1.01-.09,1.56-.8-.52-1.01-1.36-.71-1.93m1.53-2.47c.57-.6,1.34-1.06,2.07-1.39-.74-.33-1.5-.8-2.07-1.39-.57.6-1.28,1.06-2.03,1.39h0c.73.33,1.45.79,2.03,1.39m.02-.52l-.02.02-.02-.02c-.39-.37-.82-.59-1.29-.85l-.04-.02.04-.02c.47-.27.9-.48,1.29-.85h.02s.02,0,.02,0c.39.37.82.58,1.29.85l.04.02-.04.02c-.47.27-.9.48-1.29.85m-1.59,0l-.45-.88-.14-.28c1.99-1,3.08-3.07,1.83-4.94-.62-.94-1.44-1.4-2.38-1.91.32.47.65.93.95,1.42.74,1.19.86,2.61-.52,3.56-.38.26-.63.09-.97.53-.13.17-.43.11-.54-.06-.14-.22-.49-.23-.67-.06-.07.06-.25.24-.35.24-.1,0-.27-.18-.35-.24-.18-.17-.52-.16-.67.06-.11.17-.4.23-.54.06-.34-.44-.59-.27-.97-.53-1.38-.95-1.26-2.37-.52-3.56.3-.48.63-.95.95-1.42-.95.5-1.76.97-2.38,1.91-1.24,1.87-.15,3.94,1.83,4.94l-.14.28s0,0,0,0h0l-.45.88.31.06c.94.17,1.75.7,1.77,1.74.02.81.05,1.61.07,2.42,0,.26-.08.43-.28.6-.26.22-.52.43-.78.64-.22.18-.21.54-.11.78.09.2.34.21.53.26.28.08.5.21.72.41.25.22.67.34,1,.34.33,0,.75-.12,1-.34.21-.19.44-.33.72-.41.18-.05.44-.06.53-.26.1-.24.11-.6-.11-.78-.26-.21-.53-.42-.78-.64-.2-.17-.28-.34-.28-.6.02-.81.05-1.61.07-2.42.02-1.04.84-1.57,1.78-1.74l.3-.06Zm-.38-.19c-1.04.2-1.93.82-1.95,1.99-.02.81-.05,1.61-.07,2.42,0,.34.11.58.37.8.26.22.52.43.79.65.12.1.09.35.03.48-.03.07-.3.1-.36.12-.31.09-.58.21-.82.43-.21.17-.56.28-.83.28-.27,0-.62-.11-.83-.28-.24-.22-.51-.34-.82-.43-.07-.02-.33-.05-.36-.12-.06-.13-.09-.38.03-.48.26-.22.53-.43.79-.65.26-.22.38-.45.37-.8-.02-.81-.05-1.61-.07-2.42-.03-1.16-.91-1.79-1.95-1.99l.55-1.09h-.02c-1.12-.51-2.15-1.47-2.35-2.73-.12-.77.1-1.5.54-2.13.34-.49.84-1.01,1.36-1.3.04-.02.1.02.07.06-.52.68-1.09,1.52-1.14,2.4-.05.92.49,1.63,1.18,2.16.1.08.21.14.33.18.09.03.17.04.26.07.14.04.23.12.32.23.24.31.74.24.94-.07.06-.08.22-.07.29,0,.14.13.32.31.52.31.2,0,.38-.18.52-.31.07-.06.23-.08.29,0,.2.31.71.38.95.07.09-.12.18-.19.32-.23.09-.03.17-.04.26-.07.12-.04.23-.1.33-.18.7-.53,1.24-1.24,1.18-2.16-.04-.67-.37-1.3-.74-1.85-.13-.19-.26-.37-.4-.55-.03-.04.03-.08.07-.06.52.29,1.02.81,1.36,1.3.44.63.66,1.36.54,2.13-.2,1.27-1.23,2.23-2.35,2.72h-.02s.55,1.1.55,1.1Zm-2.1,5.88c-.13,0-.23.1-.23.23s.1.23.23.23.81-.12.81-.28-.68-.17-.81-.17m-1.28.23c0-.12-.1-.23-.23-.23s-.81.01-.81.17.68.28.81.28.23-.1.23-.23m-1.49-22.5c-.02-.09-.31-.11-.39-.1.09.04.23.13.33.2.04.03.09,0,.06-.1m.46-8.85c0-.09,0-.38-.01-.48,0-.04-.01-.08-.04-.07-.03,0-.04.02-.04.07,0,.18-.04.28-.14.34-.1.07-.28.09-.39.11-.43.06-.51,0-.56-.29-.02-.12-.07-.52-.1-.66l-.05-.34s0-.04.02-.05c.1-.01.52-.07.6-.07.16,0,.23.05.26.13.02.05.03.11.04.15,0,.02.01.04.04.03.04,0,.03-.05.03-.09,0-.03-.02-.2-.02-.29-.02-.22,0-.29-.01-.32,0-.03-.02-.03-.03-.03-.02,0-.04.03-.06.07-.03.05-.09.07-.19.09-.1.02-.58.09-.67.11-.03,0-.03-.01-.04-.04l-.16-1.08s0-.04.02-.05c.08-.01.53-.07.6-.07.21,0,.26.04.3.11.03.05.04.12.05.15,0,.04.02.06.05.05.03,0,.03-.03.04-.05,0-.05-.02-.24-.02-.29-.02-.2,0-.25,0-.28,0-.02-.01-.04-.03-.03-.02,0-.04.02-.07.03-.03.01-.1.03-.18.05-.08.02-.92.14-1.05.16-.12.02-.39.04-.61.08-.06,0-.09.02-.09.05,0,.03.03.04.08.03.06,0,.13-.01.17-.01.14,0,.19.07.22.22.03.14.05.26.14.91l.11.75c.06.39.11.73.11.91,0,.13,0,.22-.09.25-.04.01-.09.03-.15.04-.05,0-.07.02-.06.04,0,.03.04.04.09.03.17-.02.43-.08.53-.09.25-.04.54-.05,1.17-.14.16-.02.2-.03.21-.14m-4.99-2.21s-.05-.02-.1,0c-.12.05-.3.14-.36.17-.05.02-.22.08-.42.16-.08.03-.11.05-.09.09.01.03.04.02.08,0,.05-.02.11-.04.17-.05.04,0,.07.02.08.05.02.04.02.1.03.16.02.3.04,1.8.05,2.31h-.02s-1.43-1.52-1.43-1.52c-.12-.12-.2-.22-.22-.27-.02-.04-.01-.07,0-.1.02-.04.08-.07.14-.09.04-.02.06-.03.04-.06-.01-.03-.06-.02-.11,0-.2.08-.38.17-.48.21-.14.06-.37.14-.58.23-.06.02-.1.05-.09.08,0,.02.03.03.06.02.03-.01.09-.04.16-.05.16-.02.24,0,.43.18l2.01,2.02c.15.16.2.2.25.18.06-.02.05-.1.06-.37,0-.24,0-.75.02-1.43,0-.58.02-.84.02-1.28,0-.3.03-.39.07-.45.05-.08.13-.11.17-.13.04-.02.06-.03.05-.06m-4.12,5.49c.1-.46-.18-.9-.47-1.28l-.28-.37c-.4-.52-.47-.62-.55-.73-.08-.13-.1-.2-.02-.29.04-.04.05-.06.09-.09.04-.03.06-.05.04-.08-.02-.02-.05-.01-.1.02-.13.1-.34.27-.38.3,0,0-.22.16-.4.29-.05.04-.07.06-.05.09.02.02.04.02.08-.01.04-.03.1-.07.13-.08.13-.06.2-.03.3.08.09.1.16.2.56.72l.33.43c.27.35.5.67.45,1-.03.24-.18.43-.33.54-.12.09-.28.19-.53.18-.27-.01-.53-.15-.91-.64l-.37-.48c-.4-.52-.47-.62-.55-.73-.09-.13-.1-.2-.02-.29.04-.04.05-.06.09-.09.03-.03.05-.05.03-.07s-.05-.01-.1.03c-.12.09-.33.27-.41.33-.1.08-.32.23-.5.37-.05.04-.07.06-.05.09.02.02.04.02.08-.01.05-.04.11-.08.14-.09.13-.06.2-.03.3.08.09.11.16.2.56.72l.38.5c.38.5.7.65,1,.68.42.04.75-.2.93-.34.22-.17.44-.39.52-.79m-3.82,3.46l-.37-.3c-.17-.14-.3-.24-.4-.33-.12-.1-.15-.18-.09-.28.03-.05.04-.07.06-.1.02-.02.03-.05,0-.07-.03-.02-.05,0-.09.04-.09.11-.22.29-.3.4-.08.1-.26.3-.4.47-.04.05-.05.08-.02.1.02.02.04,0,.07-.03.04-.05.09-.1.11-.12.11-.09.19-.08.31.01.1.08.23.18.4.32l.32.25c.06.05.09.09.07.16-.03.11-.12.23-.19.31-.56.7-1.47.72-2.2.14-.41-.33-.57-.65-.58-.97,0-.39.17-.64.32-.83.3-.38.67-.52.86-.53.16-.01.29.06.37.11.03.02.05.03.07,0,.02-.03.01-.05-.04-.09-.42-.34-.5-.44-.54-.47-.02-.02-.04-.02-.08.01-.06.07-.18.17-.25.23-.07.06-.34.32-.53.55-.22.28-.44.59-.5,1.07-.06.45.1,1.03.64,1.46.93.75,1.9.34,2.55-.48.21-.26.43-.62.49-.92,0-.06,0-.07-.09-.14m-4.1,7.63l-.76-.44.24-.83-.85.24-.41-.76-.43.77-.83-.24.23.85-.75.42.76.44-.24.83.85-.24.41.76.43-.77.83.24-.23-.85.75-.42Zm-1.05-.32l.55.32-.54.3.17.62-.6-.18-.32.56-.3-.55-.61.17.17-.6-.55-.32.54-.3-.17-.62.59.18.32-.56.3.55.61-.17-.17.6Zm-1.93,6.62l-.76-.07c-.4-.04-.74-.07-.91-.11-.12-.03-.22-.06-.23-.15,0-.04,0-.09,0-.15,0-.05,0-.07-.03-.07-.03,0-.05.03-.05.08-.02.17-.03.44-.04.52,0,.06-.05.38-.07.62,0,.06,0,.09.04.09.02,0,.04-.01.04-.05,0-.05.02-.14.04-.21.03-.13.13-.14.25-.14.18,0,.52.03.92.07h.06s.03.02.03.04l-.04.37s0,.05-.04.07c-.07.05-.38.22-.63.36-.35.21-.57.35-.69.52-.07.1-.1.21-.12.45l-.04.4c0,.05,0,.08.04.09.02,0,.04-.01.04-.05,0-.03.01-.07.02-.12.02-.06.07-.23.34-.45.29-.23.7-.48,1.22-.81.31.46.59.62.91.65.29.03.52-.12.62-.23.18-.21.23-.5.26-.76.01-.13.03-.46.04-.6,0-.09.05-.36.07-.58,0-.06,0-.09-.03-.1-.03,0-.04.02-.05.07,0,.06-.02.13-.03.16-.04.14-.12.16-.26.16-.14,0-.26-.02-.91-.08m-.39.47l1.31.12s.05.01.06.04c0,.04,0,.12,0,.23-.02.25-.24.63-.85.58-.35-.03-.54-.18-.62-.31-.05-.08-.06-.14-.04-.31,0-.11.03-.23.07-.32.02-.03.03-.04.08-.03m-1.85,4.42c0,.17.04.44.05.54.01.25,0,.54.04,1.18,0,.16.01.2.13.22.09.02.38.03.48.03.04,0,.08,0,.08-.04,0-.03-.02-.04-.07-.04-.18-.02-.27-.06-.33-.17-.06-.11-.07-.29-.08-.4-.03-.43.04-.51.33-.53.12-.01.52-.03.67-.04l.34-.02s.04,0,.04.02c0,.1.03.52.02.6,0,.16-.07.22-.15.25-.06.02-.11.02-.15.03-.02,0-.04.01-.04.04,0,.04.05.04.08.03.03,0,.2,0,.29,0,.22,0,.29.02.32.02.03,0,.03-.02.03-.03,0-.02-.02-.04-.06-.07-.05-.04-.06-.1-.08-.2-.01-.1-.04-.59-.05-.68,0-.03.02-.03.05-.03l1.09-.07s.04,0,.04.03c0,.09.02.53.02.6-.01.21-.06.26-.14.29-.05.02-.12.03-.15.03-.04,0-.06.01-.06.04,0,.03.03.04.05.04.05,0,.24,0,.29,0,.2,0,.25.02.28.02.02,0,.04,0,.04-.03,0-.02-.02-.05-.02-.07-.01-.03-.02-.1-.04-.18,0-.08-.06-.93-.07-1.06,0-.12,0-.39-.02-.61,0-.06-.01-.09-.04-.09-.03,0-.04.03-.03.07,0,.06,0,.13,0,.17-.02.14-.09.18-.23.2-.14.02-.26.02-.91.06l-.76.05c-.4.02-.74.04-.92.03-.13,0-.22-.03-.24-.11-.01-.04-.02-.09-.03-.15,0-.05-.02-.07-.04-.07-.03,0-.04.03-.04.09m.53,4.74s-.04.04-.02.09c.04.17.1.43.12.52.02.11.07.37.13.65,0,.05.03.08.06.07.02,0,.03-.03.02-.07-.01-.06-.03-.16-.03-.22,0-.13.08-.17.19-.21.18-.06.51-.13.9-.21l1.69-.36s.07,0,.09.02c.02.04.04.1.05.16.02.1.03.27-.08.45-.16.28-.44.35-.58.38-.43.09-.77-.18-.82-.41-.02-.09-.04-.11-.07-.11-.03,0-.03.04-.03.06,0,.02,0,.07.01.09.13.59.64.94,1.24.81.22-.05.39-.21.46-.32.05-.08.19-.31.08-.83-.04-.19-.11-.43-.14-.6-.02-.12-.07-.38-.12-.6-.01-.06-.03-.09-.06-.08-.03,0-.03.03-.02.08.01.06.02.13.02.17,0,.14-.06.19-.2.23-.13.04-.25.06-.89.2l-.74.16c-.39.08-.72.15-.9.17-.13,0-.22,0-.26-.07-.02-.04-.04-.08-.05-.15-.01-.05-.03-.06-.05-.06m1.64,5.29c-.15.4,0,.78.08.99.1.26.26.52.62.71.42.22.91.07,1.36-.11l.43-.17c.61-.25.72-.29.85-.34.14-.05.22-.05.29.05.03.04.04.07.06.11.02.05.04.07.07.06.03-.01.03-.04,0-.1-.06-.15-.18-.4-.19-.45,0,0-.09-.26-.17-.46-.02-.06-.04-.08-.07-.07-.03.01-.03.04,0,.08.02.04.04.11.05.15.02.14-.03.2-.16.26-.13.06-.24.11-.85.35l-.5.2c-.41.17-.78.3-1.09.17-.22-.09-.37-.28-.44-.46-.05-.13-.11-.32-.04-.56.08-.26.28-.47.86-.71l.56-.23c.61-.25.72-.29.85-.34.14-.05.22-.04.29.05.03.04.04.07.06.11.02.04.03.06.06.05.03-.01.03-.04,0-.1-.06-.14-.17-.39-.21-.48-.05-.12-.14-.37-.22-.58-.02-.06-.04-.08-.07-.07-.03.01-.03.04,0,.08.02.06.05.12.05.16.03.14-.03.2-.16.26-.13.06-.24.11-.85.35l-.58.24c-.58.24-.82.51-.92.78m2.08,4.86s-.02.05,0,.1c.09.14.25.36.3.44.07.11.26.45.31.53.43.66,1.02.7,1.41.44.42-.28.45-.8.36-1.16.29.09.57.15.87-.05.19-.12.47-.47.05-1.11-.08-.12-.18-.25-.29-.43-.05-.07-.18-.3-.3-.49-.04-.05-.06-.07-.08-.06-.03.02-.02.04,0,.08.03.05.07.11.08.15.05.13.01.2-.11.29-.11.08-.21.15-.76.51l-.64.41c-.33.22-.62.4-.78.48-.11.05-.21.09-.27.03-.03-.03-.06-.07-.1-.12-.03-.04-.05-.05-.07-.04m2.14-.07c-.05-.08-.08-.14-.1-.18,0-.02,0-.03.02-.05l.9-.58s.06-.03.08,0c.03.03.05.06.08.11.2.31-.03.65-.27.81-.18.12-.34.15-.48.1-.09-.03-.16-.1-.24-.21m-1.16.48l.86-.56s.03,0,.04,0c.03.05.06.09.1.16.08.14.11.24.11.35-.02.4-.27.67-.5.81-.38.24-.64.03-.74-.13-.05-.08-.1-.17-.13-.29-.03-.15.03-.2.27-.35m2.1,3.83s-.01.05.03.09c.12.12.31.31.38.38.24.25.41.47.84.92.15.16.18.16.27.11.11-.06.37-.26.4-.3.04-.04.05-.05.03-.08-.02-.02-.05-.01-.08.01-.07.05-.19.1-.26.1-.16,0-.28-.11-.43-.28-.23-.24-.28-.34-.29-.44,0-.12.21-.32.61-.71l.55-.52c.48-.45.56-.54.67-.63.12-.1.19-.12.29-.06.04.03.09.08.12.11.04.04.06.05.08.03.02-.02,0-.05-.03-.09-.11-.12-.34-.34-.41-.41-.08-.08-.26-.29-.39-.43-.04-.05-.07-.06-.09-.04-.02.02-.01.05.02.08.04.04.07.08.09.11.08.12.05.2-.05.3-.09.1-.18.19-.66.64l-.55.53c-.29.27-.54.51-.68.62-.1.07-.19.12-.26.07-.03-.02-.07-.05-.12-.1-.04-.04-.06-.04-.07-.03m3.5,3.27s0,.05.04.09c.14.1.36.25.44.31.09.07.3.24.53.4.04.03.07.04.09.01.01-.02,0-.04-.04-.07-.05-.04-.12-.1-.17-.14-.09-.09-.07-.17-.01-.27.1-.16.3-.44.54-.78l.45-.62c.39-.53.46-.63.55-.74.1-.12.17-.16.27-.11.05.02.08.04.11.06.04.03.06.03.08,0,.02-.02,0-.05-.05-.08-.13-.09-.34-.23-.43-.29-.1-.07-.31-.24-.44-.34-.06-.04-.09-.05-.1-.03-.02.03,0,.05.03.08.04.03.08.07.11.1.06.07.06.16-.02.28-.07.12-.15.21-.53.75l-.45.62c-.25.34-.45.62-.57.75-.08.09-.15.14-.23.1-.04-.02-.08-.04-.13-.08-.04-.03-.06-.03-.08-.01m4.07.71c-.17.39-.26.87-.02,1.38.22.47.62.78,1.16,1.01.25.11.56.21.74.21.08,0,.1-.01.15-.07.1-.12.29-.44.31-.49.01-.03.02-.06,0-.08-.03-.01-.05,0-.09.06-.05.07-.15.16-.25.2-.24.12-.46.06-.81-.09-.52-.23-1.03-1-.62-1.95.17-.39.4-.73.8-.87.24-.08.5-.08.84.07.36.16.62.39.69.59.05.15.04.31,0,.43-.02.06-.03.09,0,.1.04.02.06-.01.09-.07.04-.08.13-.3.2-.42.07-.14.1-.18.11-.21,0-.02,0-.05-.04-.07-.11-.06-.22-.15-.36-.24-.17-.1-.31-.18-.55-.29-.58-.25-1.02-.25-1.42-.11-.53.19-.81.62-.93.89m4.86,3.41s.02.05.08.06c.17.03.43.06.53.08.11.02.38.08.65.12.05,0,.08,0,.09-.03,0-.02-.02-.04-.06-.05-.06-.01-.15-.03-.21-.05-.12-.04-.14-.12-.13-.24.01-.19.07-.52.14-.94l.13-.75c.11-.65.13-.77.16-.9.03-.15.08-.21.2-.22.05,0,.09,0,.13,0,.04,0,.07,0,.07-.03,0-.03-.03-.04-.08-.05-.16-.03-.41-.06-.51-.07-.12-.02-.38-.08-.54-.11-.07-.01-.1,0-.11.02,0,.03.02.05.06.05.05,0,.1.02.15.04.09.04.12.12.1.26-.01.14-.04.26-.14.9l-.13.75c-.07.41-.13.75-.18.93-.03.12-.07.19-.16.19-.04,0-.09,0-.15,0-.05,0-.07,0-.07.02m4.03-2.79s.03.04.07.04c.05,0,.11,0,.15.01.09.02.14.09.15.24.01.14.02.26.04.92l.03.76c.02.42.03.76.01.94,0,.13-.03.2-.12.22-.04.01-.09.02-.15.02-.05,0-.07.02-.07.04,0,.03.03.04.09.04.17,0,.44-.03.54-.03.12,0,.38,0,.66-.01.05,0,.08-.02.08-.05,0-.02-.02-.03-.07-.03-.06,0-.16,0-.22,0-.13-.01-.16-.09-.18-.21-.02-.18-.04-.53-.05-.95l-.03-.76c-.02-.66-.03-.78-.03-.92,0-.15.03-.23.15-.25.05,0,.09-.02.13-.02.04,0,.07-.01.07-.05,0-.03-.04-.03-.09-.03-.16,0-.41.03-.52.03-.12,0-.39,0-.55,0-.07,0-.1.01-.1.04m6.18-1.25s-.04.06-.02.13l.81,2.73c.04.14.08.31-.01.38-.05.04-.08.05-.11.07-.04.02-.06.04-.05.06.02.04.05.03.09,0,.12-.06.3-.16.38-.19.07-.03.25-.1.41-.18.06-.03.09-.05.07-.09,0-.02-.04-.02-.07,0-.04.02-.09.04-.17.06-.07.02-.14,0-.17-.07-.03-.06-.05-.12-.07-.19l-.53-1.65h.02c.27.22.73.61.81.67.1.09.68.54.86.68.12.09.19.15.23.13.03-.02.04-.06.04-.29v-2.17s.03,0,.03,0l1.04,1.61c.07.1.08.16.06.18-.02.02-.03.04-.02.06.01.02.04.02.13,0,.16-.06.7-.3.79-.34.05-.03.1-.06.08-.09-.01-.02-.04-.01-.08,0-.05.02-.13.06-.26.07-.13.02-.22-.08-.37-.31l-1.48-2.25c-.05-.08-.09-.11-.13-.09-.03.02-.04.06-.04.13v2.73s-2.09-1.71-2.09-1.71c-.1-.08-.13-.09-.16-.07m5.7-1.2c.51.57,1.49.94,2.41.13.81-.72.8-1.75.15-2.5-.66-.74-1.57-.77-2.36-.07-.96.85-.69,1.88-.2,2.43m.24-2.2c.52-.46,1.33-.38,1.97.35.83.94.41,1.5.18,1.7-.61.54-1.45.33-2.05-.34-.71-.81-.48-1.38-.11-1.71m2.83-3.05c.11-.1.18-.08.31,0,.12.08.21.15.74.54l.61.45c.32.24.6.44.73.56.09.09.16.16.12.24-.02.04-.04.08-.08.13-.03.04-.03.06-.01.08.02.02.05,0,.09-.04.1-.14.25-.36.31-.44.2-.28.39-.49.76-.98.13-.18.13-.21.07-.29-.08-.1-.32-.32-.36-.35-.04-.03-.06-.04-.08-.02-.02.03,0,.05.02.08.06.06.13.17.14.24.03.16-.07.29-.2.47-.2.27-.29.34-.38.36-.12.03-.36-.15-.8-.48l-.61-.45c-.53-.39-.63-.46-.73-.55-.12-.1-.16-.17-.11-.27.02-.05.06-.1.09-.14.03-.04.04-.07.01-.08-.02-.02-.05,0-.08.05-.1.13-.27.39-.33.47-.07.09-.24.3-.36.46-.04.05-.05.08-.02.1.02.02.05,0,.07-.04.03-.04.07-.08.09-.11m3.47-3.18l.69.33c.36.17.67.32.82.41.11.07.18.13.16.21,0,.04-.02.09-.05.15-.02.05-.02.07,0,.08.03.01.05,0,.08-.06.07-.15.18-.4.22-.49.09-.19.3-.52.43-.8.34-.71.25-1.25.15-1.51-.12-.32-.4-.7-.89-.94-.46-.22-.87-.19-1.17-.1-.64.21-.95.85-1.18,1.33-.11.23-.21.48-.27.6-.05.11-.18.35-.27.55-.03.06-.03.09,0,.1.03.01.05,0,.07-.05.03-.05.06-.12.08-.14.09-.11.16-.12.3-.06.13.05.24.1.83.38m.17-.51c-.31-.15-.65-.31-.78-.37-.04-.02-.06-.04-.06-.08,0-.04.05-.19.09-.26.14-.3.4-.72.91-.91.24-.09.66-.14,1.15.09.4.19.72.44.82.78.09.33.05.63-.14,1.02-.14.3-.3.42-.39.43-.06,0-.22-.06-.32-.1-.08-.03-.38-.17-.79-.37l-.49-.23Zm2.28-4.36c.74.18,1.76-.08,2.05-1.27.26-1.05-.34-1.9-1.3-2.13-.96-.23-1.73.26-1.98,1.29-.3,1.24.51,1.94,1.23,2.11m0-.6c-1.05-.25-1.18-.86-1.07-1.34.17-.68.88-1.07,1.82-.84,1.21.3,1.19,1,1.12,1.29-.19.8-1,1.1-1.88.89m-.07-5.31l2.7-.91c.21-.07.27-.09.27-.15,0-.06-.06-.09-.31-.22-.21-.11-.67-.34-1.28-.65-.52-.26-.74-.39-1.14-.58-.27-.13-.34-.2-.37-.26-.05-.08-.04-.17-.04-.21,0-.04,0-.07-.03-.07-.03,0-.04.03-.04.09,0,.13,0,.33-.01.4,0,.06-.03.23-.04.45,0,.08,0,.12.04.12.03,0,.04-.03.04-.07,0-.06.01-.12.03-.17.02-.04.05-.05.09-.05.04,0,.1.02.16.05.28.12,1.63.76,2.1.97v.02s-2.01.61-2.01.61c-.16.05-.28.08-.34.08-.04,0-.07-.02-.09-.05-.02-.04-.02-.1-.02-.17,0-.04,0-.06-.04-.07-.03,0-.04.04-.04.1-.01.21-.01.42-.02.52,0,.15-.04.39-.05.62,0,.06,0,.11.03.11.03,0,.04-.01.04-.05,0-.03,0-.1.03-.16.05-.15.1-.22.35-.3"></path></g></svg>